<?xml version="1.0" encoding="UTF-8" standalone="no"?>
<!-- Created with Inkscape (http://www.inkscape.org/) -->

<svg
   xmlns:dc="http://purl.org/dc/elements/1.1/"
   xmlns:cc="http://creativecommons.org/ns#"
   xmlns:rdf="http://www.w3.org/1999/02/22-rdf-syntax-ns#"
   xmlns:svg="http://www.w3.org/2000/svg"
   xmlns="http://www.w3.org/2000/svg"
   xmlns:sodipodi="http://sodipodi.sourceforge.net/DTD/sodipodi-0.dtd"
   xmlns:inkscape="http://www.inkscape.org/namespaces/inkscape"
   width="524"
   height="524"
   id="svg2"
   version="1.1"
   inkscape:version="0.48.4 r9939"
   inkscape:export-filename="/data/Almende/Projects/Crownstone/dobeacon-app/doc/icon_xhdpi.png"
   inkscape:export-xdpi="16.49"
   inkscape:export-ydpi="16.49"
   sodipodi:docname="New document 1">
  <defs
     id="defs4">
    <clipPath
       clipPathUnits="userSpaceOnUse"
       id="clipPath3766">
      <rect
         style="fill:none;stroke:#000000;stroke-width:8.00051117;stroke-miterlimit:4;stroke-opacity:1;stroke-dasharray:none"
         id="rect3768"
         width="563.99951"
         height="563.99951"
         x="75.578949"
         y="315.64059" />
    </clipPath>
  </defs>
  <sodipodi:namedview
     id="base"
     pagecolor="#ffffff"
     bordercolor="#666666"
     borderopacity="1.0"
     inkscape:pageopacity="0.0"
     inkscape:pageshadow="2"
     inkscape:zoom="0.7"
     inkscape:cx="123.09641"
     inkscape:cy="107.0452"
     inkscape:document-units="px"
     inkscape:current-layer="g3805"
     showgrid="false"
     inkscape:window-width="1720"
     inkscape:window-height="1028"
     inkscape:window-x="2120"
     inkscape:window-y="24"
     inkscape:window-maximized="0" />
  <metadata
     id="metadata7">
    <rdf:RDF>
      <cc:Work
         rdf:about="">
        <dc:format>image/svg+xml</dc:format>
        <dc:type
           rdf:resource="http://purl.org/dc/dcmitype/StillImage" />
        <dc:title></dc:title>
      </cc:Work>
    </rdf:RDF>
  </metadata>
  <g
     inkscape:label="Layer 1"
     inkscape:groupmode="layer"
     id="layer1"
     transform="translate(0,-528.36218)">
    <g
       id="g3805"
       transform="translate(-105.72994,279.65164)">
      <g
         id="g3818">
        <g
           id="g3783"
           transform="translate(19.999994,-82.857143)">
          <path
             style="fill:#87edf3"
             d="m 328.87237,850.91851 c -12.33955,-3.23314 -22.57189,-9.24888 -32.22951,-18.9482 -9.59562,-9.63705 -14.81802,-17.86811 -18.74029,-29.5367 -2.44375,-7.27004 -2.68911,-9.36867 -2.68911,-23 0,-13.63133 0.24536,-15.72996 2.68911,-23 3.91573,-11.64914 9.13446,-19.88463 18.74029,-29.57337 6.92741,-6.98721 10.19742,-9.42221 17.67475,-13.16144 5.04611,-2.52344 11.79611,-5.1543 15,-5.84635 3.20389,-0.69206 5.96902,-1.36317 6.14473,-1.49137 0.17571,-0.1282 -1.78443,-3.08933 -4.35588,-6.58028 -6.08591,-8.26215 -14.77314,-26.17394 -17.73848,-36.57414 -1.29013,-4.52482 -2.58992,-8.47119 -2.88843,-8.76969 -0.29851,-0.29851 -3.42138,0.12458 -6.93972,0.9402 -32.15191,7.45345 -70.60445,1.31288 -99.79532,-15.93653 -12.06053,-7.12677 -19.51171,-13.12148 -30.63522,-24.64699 -18.30841,-18.97006 -30.79549,-43.01764 -36.1813,-69.67782 -2.47553,-12.25407 -2.41829,-40.40176 0.10612,-52.18222 6.26706,-29.24593 18.34822,-51.81948 38.56371,-72.05601 40.11154,-40.15327 99.50573,-51.99048 151.99192,-30.29186 9.15666,3.78551 23.60826,12.05137 31.21987,17.8568 l 4.66675,3.55936 0.66092,-6.78414 c 3.00851,-30.88151 22.05216,-55.95928 50.33207,-66.28017 40.94434,-14.94284 85.76986,6.73083 99.65027,48.18207 3.57236,10.66816 4.5534,28.37492 2.18807,39.49205 -3.32145,15.61091 -9.72995,27.34985 -21.18342,38.80331 -16.30442,16.30442 -34.30806,23.25167 -57.48141,22.18091 -6.325,-0.29225 -12.42334,-0.815 -13.55187,-1.16166 -1.8475,-0.56752 -2.2223,0.0983 -3.76282,6.68452 -0.94102,4.02315 -1.70499,7.53982 -1.69771,7.81482 0.007,0.275 7.32554,0.51314 16.26281,0.52921 17.97502,0.0323 26.90122,1.46515 41.74959,6.70167 34.89641,12.30681 63.92878,41.07718 76.45908,75.76912 11.26707,31.19447 9.63623,67.25957 -4.36786,96.59312 -18.08804,37.88794 -51.95663,63.88933 -92.59122,71.08359 -9.03314,1.59929 -34.18529,2.19273 -38.25052,0.90247 l -2.06332,-0.65487 2.11543,6.28785 c 1.77886,5.28746 2.11641,8.6743 2.12162,21.28784 0.006,13.64068 -0.2375,15.72497 -2.68292,23 -3.9288,11.68802 -9.15479,19.9145 -18.74029,29.5 -9.84295,9.84295 -20.08459,15.82467 -32.55506,19.01408 -10.35522,2.64842 -27.04611,2.63533 -37.21543,-0.0292 z m 87.26257,-357.80902 c 1.00046,-4.1641 1.38178,-7.68357 0.8838,-8.15723 -1.35118,-1.28522 -8.37588,-4.00294 -8.37588,-3.24047 0,0.37187 0.71562,4.28641 1.59026,8.69897 0.87464,4.41257 1.80985,9.14149 2.07825,10.50872 0.6622,3.37331 1.59393,1.47018 3.82357,-7.80999 z"
             id="path3801"
             inkscape:connector-curvature="0" />
          <path
             style="fill:#6b9bd2"
             d="m 332.14286,851.51762 c -22.90049,-5.2851 -40.38707,-19.49274 -50.56567,-41.08401 -19.26146,-40.85821 3.62205,-90.51144 47.06567,-102.1243 3.575,-0.95563 6.61495,-1.80855 6.75545,-1.89539 0.1405,-0.0868 -2.29208,-3.94293 -5.40572,-8.56909 -8.49214,-12.61739 -18.34973,-35.2619 -18.34973,-42.15236 0,-1.61788 -0.50957,-1.89554 -2.75,-1.49846 -21.3344,3.78121 -23.0434,3.92827 -39.75,3.42036 -18.00804,-0.54747 -29.32703,-2.62139 -43.57111,-7.98332 -43.19933,-16.2616 -76.07038,-53.27287 -86.76862,-97.69744 -17.88939,-74.28582 27.94814,-149.79751 101.86123,-167.80385 51.84013,-12.62903 106.13119,5.28369 141.04873,46.53745 l 4.42977,5.23361 27,-17.4672 c 14.85,-9.60695 27.5625,-17.47457 28.25,-17.4836 0.6875,-0.009 1.25,0.89397 1.25,2.00666 0,1.71188 -23.12425,93.99277 -24.50018,97.77174 -0.3758,1.03214 1.51328,1.15811 9.31231,0.62096 25.74121,-1.7729 54.73312,6.18938 77.52017,21.28998 9.3887,6.22173 23.48308,19.78671 30.91503,29.75383 7.83816,10.51187 17.0486,29.53021 20.14244,41.59142 15.18951,59.21586 -10.83799,117.97568 -64.38977,145.36668 -20.10719,10.28455 -36.81938,13.97856 -60.76128,13.43049 -13.26643,-0.3037 -15.1798,-0.15321 -14.63789,1.15123 4.13878,9.96255 5.44866,27.70256 2.95656,40.04149 -5.27421,26.11382 -23.65238,46.91412 -49.05739,55.52285 -9.81335,3.32535 -28.12635,4.29896 -38,2.02027 z M 425.6499,455.39226 c 6.46742,-25.82726 11.66109,-47.07167 11.54148,-47.2098 -0.23424,-0.27049 -46.50543,29.41685 -47.86897,30.71247 -0.45125,0.42877 0.85678,3.40152 2.90674,6.60611 8.96016,14.00699 16.27914,33.48194 18.67701,49.69732 0.63152,4.27061 1.56145,7.627 2.0665,7.45865 0.50506,-0.16835 6.20981,-21.43749 12.67724,-47.26475 z"
             id="path3799"
             inkscape:connector-curvature="0" />
          <path
             style="fill:#3991ca"
             d="m 338.14286,852.37706 c -1.1,-0.25472 -4.475,-0.95395 -7.5,-1.55384 -7.47855,-1.48307 -20.17413,-7.58081 -27.77235,-13.33919 -11.49964,-8.7151 -21.76837,-24.43931 -25.82849,-39.55042 -1.20379,-4.48033 -1.74645,-10.22862 -1.74645,-18.5 0,-8.27138 0.54266,-14.01967 1.74645,-18.5 4.06012,-15.11111 14.32885,-30.83532 25.82849,-39.55042 7.22802,-5.47782 19.90842,-11.66622 27.52235,-13.43171 2.8875,-0.66954 5.25,-1.42933 5.25,-1.68842 0,-0.25908 -1.9541,-3.2517 -4.34244,-6.65026 -9.0391,-12.86241 -15.39477,-26.96592 -19.62672,-43.55251 -7.59554,-29.76974 -2.30596,-65.91276 13.53927,-92.51225 1.92837,-3.23716 3.37647,-6.26597 3.21801,-6.73069 -0.15847,-0.46473 -14.68812,-9.55097 -32.28812,-20.19165 -17.6,-10.64068 -32,-19.97257 -32,-20.73754 0,-0.76498 24.17199,-16.93019 53.71553,-35.92271 40.01609,-25.72494 53.56453,-34.9144 53.12344,-36.03184 -3.37668,-8.55442 -5.40415,-15.79521 -6.16715,-22.02507 -0.50352,-4.11121 -0.73466,-7.67594 -0.51363,-7.92162 0.57536,-0.63955 15.9833,14.82099 18.62627,18.68986 1.21855,1.78374 2.51075,3.24624 2.87156,3.25 0.36082,0.004 12.89959,-7.9069 27.86394,-17.57924 18.63473,-12.04473 27.53186,-17.26211 28.23602,-16.55795 0.70416,0.70416 -2.84325,16.24988 -11.25812,49.33607 -6.75743,26.56937 -12.45973,48.77983 -12.67177,49.35658 -0.25841,0.7029 4.81709,1.0562 15.39419,1.07159 17.62794,0.0256 29.85111,2.05464 44.42954,7.37511 35.15789,12.83104 64.04922,42.47292 75.81267,77.78216 4.8051,14.42302 6.40737,24.27884 6.4577,39.72251 0.0511,15.67555 -1.26073,24.66283 -5.589,38.28995 -4.22071,13.28849 -8.05697,21.34456 -15.46951,32.48564 -15.37735,23.11223 -37.87148,40.26252 -64.4885,49.16821 -15.73315,5.2641 -26.6999,6.84364 -44.15468,6.35958 -12.04167,-0.33394 -14.68651,-0.16239 -14.26904,0.92551 4.2879,11.1741 5.32269,32.46798 2.15138,44.27111 -6.81785,25.37497 -26.89763,45.78143 -51.75367,52.59568 -5.35051,1.46683 -24.5795,2.72025 -28.34717,1.84777 z m -2.18199,-304.33322 c 5.6245,-7.37533 18.43368,-19.20693 27.19296,-25.11763 10.71949,-7.23344 26.1316,-14.40524 37.48903,-17.44496 5.225,-1.39843 10.4,-2.55063 11.5,-2.56045 1.80388,-0.0161 3.14975,-4.64394 13.72498,-47.19421 6.44874,-25.94699 11.55404,-47.34729 11.34512,-47.55621 -0.41488,-0.41488 -45.2213,28.1776 -47.42747,30.26507 -1.1333,1.07232 -0.5762,2.5712 3.3748,9.07981 6.29887,10.37636 15.60906,32.43499 13.67871,32.40897 -0.38288,-0.005 -3.06172,-1.36603 -5.95298,-3.02414 -6.8836,-3.94768 -18.48162,-14.9548 -23.41981,-22.22661 -2.6736,-3.93706 -4.33554,-5.53571 -5.2091,-5.01077 -9.07392,5.45277 -101.61203,65.70318 -101.60596,66.15438 0.008,0.62893 59.99203,37.11652 61.01749,37.11652 0.30979,0 2.24129,-2.2004 4.29223,-4.88977 z"
             id="path3797"
             inkscape:connector-curvature="0" />
          <path
             style="fill:#728e87"
             d="m 338.14286,852.37706 c -1.1,-0.25472 -4.475,-0.95395 -7.5,-1.55384 -7.47855,-1.48307 -20.17413,-7.58081 -27.77235,-13.33919 -11.49964,-8.7151 -21.76837,-24.43931 -25.82849,-39.55042 -1.20379,-4.48033 -1.74645,-10.22862 -1.74645,-18.5 0,-8.27138 0.54266,-14.01967 1.74645,-18.5 4.06012,-15.11111 14.32885,-30.83532 25.82849,-39.55042 7.22802,-5.47782 19.90842,-11.66622 27.52235,-13.43171 2.8875,-0.66954 5.25,-1.38008 5.25,-1.57898 0,-0.19889 -2.44589,-3.95364 -5.4353,-8.34388 -9.34229,-13.72003 -16.36443,-30.70852 -20.0866,-48.59501 -2.14678,-10.31612 -2.19164,-32.86478 -0.0886,-44.50962 2.64465,-14.64349 9.41397,-32.42344 16.94922,-44.51793 l 2.50929,-4.02755 -32.38531,-19.47245 c -19.35788,-11.63942 -32.38961,-20.07584 -32.39606,-20.97245 -0.006,-0.88682 17.45354,-12.72336 42.71128,-28.95511 23.49714,-15.10031 50.82208,-32.70248 60.72208,-39.11595 71.56259,-46.35999 75.84093,-48.85336 74.09858,-43.18387 -0.29663,0.96521 -5.75471,22.45493 -12.12906,47.75493 -6.37435,25.3 -11.78922,46.69682 -12.03305,47.5485 -0.38666,1.35054 1.57047,1.55144 15.3101,1.57159 17.59964,0.0258 29.83281,2.05769 44.40325,7.37524 35.15789,12.83104 64.04922,42.47292 75.81267,77.78216 4.8051,14.42302 6.40737,24.27884 6.4577,39.72251 0.0511,15.67555 -1.26073,24.66283 -5.589,38.28995 -4.22071,13.28849 -8.05697,21.34456 -15.46951,32.48564 -15.37735,23.11223 -37.87148,40.26252 -64.4885,49.16821 -15.73315,5.2641 -26.6999,6.84364 -44.15468,6.35958 -12.04167,-0.33394 -14.68651,-0.16239 -14.26904,0.92551 4.2879,11.1741 5.32269,32.46798 2.15138,44.27111 -6.81785,25.37497 -26.89763,45.78143 -51.75367,52.59568 -5.35051,1.46683 -24.5795,2.72025 -28.34717,1.84777 z m -2.26393,-304.19345 c 16.18235,-21.07627 45.96637,-39.48447 71.82016,-44.38889 l 6.48462,-1.23012 11.74024,-46.56549 c 6.45713,-25.61103 11.73544,-47.107 11.72957,-47.76884 -0.01,-1.11322 -13.19075,7.0755 -48.51066,30.13761 -7.7,5.0277 -37.73623,24.42428 -66.74718,43.10351 -29.01094,18.67922 -52.72888,34.18722 -52.70651,34.46222 0.0596,0.73303 60.26657,36.9204 61.4982,36.96347 0.57449,0.0201 2.68569,-2.10097 4.69156,-4.71347 z"
             id="path3795"
             inkscape:connector-curvature="0" />
          <path
             style="fill:#398c8e"
             d="m 335.40625,851.96955 c -13.87182,-2.53711 -26.27108,-8.84747 -36.74512,-18.7007 -13.25327,-12.46772 -19.82748,-24.76087 -22.74416,-42.52939 -1.40662,-8.56917 -1.47204,-11.44259 -0.44554,-19.56989 2.36349,-18.71297 7.96045,-30.01418 21.67118,-43.75781 10.40114,-10.4261 18.09175,-14.95235 32.35985,-19.04512 8.12083,-2.32943 10.60013,-2.59978 20.9771,-2.28734 l 11.76782,0.35431 13.66047,-53.95393 c 7.51326,-29.67467 13.5459,-54.06852 13.40585,-54.20856 -0.14004,-0.14004 -2.62365,2.85176 -5.51913,6.64846 -6.52095,8.5506 -20.13793,21.53856 -29.55256,28.18742 -3.90453,2.75749 -11.82415,7.38881 -17.59915,10.29184 -10.33562,5.1956 -24.46064,10.40746 -25.47012,9.39798 -2.86342,-2.86342 -3.60984,-34.19912 -1.14034,-47.87283 2.64465,-14.64349 9.41397,-32.42344 16.94922,-44.51793 l 2.50929,-4.02755 -32.38531,-19.47245 c -19.35792,-11.63942 -32.38965,-20.07584 -32.3961,-20.97245 -0.006,-0.88682 17.45354,-12.72336 42.71128,-28.95511 23.49714,-15.10031 50.82208,-32.70248 60.72208,-39.11595 71.55929,-46.35785 75.84578,-48.85603 74.09677,-43.18387 -1.22442,3.97092 -24.48011,97.48502 -26.42416,106.25493 -1.15823,5.225 -2.57224,14.45059 -3.14223,20.50132 -1.34424,14.26971 -4.84792,28.52127 -10.07933,40.99868 -2.30599,5.5 -4.88778,11.9766 -5.73731,14.39245 -1.86432,5.30163 -4.47582,3.06262 22.88183,19.61817 13.99677,8.47019 20.90443,13.20998 20.90443,14.34389 0,0.93144 -12.14354,22.83271 -26.98564,48.6695 l -26.98563,46.97599 2.73563,1.90423 c 5.2006,3.62004 17.74798,17.24899 21.13462,22.9564 4.39609,7.4086 6.8108,14.78756 8.83829,27.0084 1.39519,8.40959 1.4594,11.27773 0.43416,19.39501 -2.36349,18.71297 -7.96045,30.01418 -21.67118,43.75781 -9.81615,9.83972 -17.55683,14.59865 -30.00025,18.44402 -7.8589,2.42861 -24.88848,3.50547 -32.73661,2.07007 z m 74.66209,-184.53371 c 14.52677,-25.29878 26.3363,-46.05808 26.24341,-46.13178 -0.0929,-0.0737 -9.52756,-5.79384 -20.96594,-12.71141 -12.78706,-7.7332 -20.95238,-12.11168 -21.20035,-11.36822 -0.92558,2.77512 -27.5026,108.64054 -27.5026,109.55236 0,0.54785 2.1375,1.7235 4.75,2.61255 2.6125,0.88906 5.875,2.26523 7.25,3.05815 1.375,0.79292 3.06547,1.33917 3.75659,1.2139 0.69112,-0.12528 13.14212,-20.92678 27.66889,-46.22555 z M 335.87893,548.18361 c 15.55886,-20.26423 42.36546,-37.34686 68.62197,-43.72969 5.97288,-1.45198 7.51,-1.54285 8.1652,-0.48271 0.54457,0.88113 1.13832,0.0302 1.82514,-2.6158 6.29959,-24.26921 23.15162,-91.95077 23.15162,-92.98213 0,-1.24691 -12.36183,6.39821 -48.5,29.9946 -7.7,5.0277 -37.73623,24.42428 -66.74718,43.10351 -29.01094,18.67922 -52.72888,34.18722 -52.70651,34.46222 0.0596,0.73303 60.26657,36.9204 61.4982,36.96347 0.57449,0.0201 2.68569,-2.10097 4.69156,-4.71347 z"
             id="path3793"
             inkscape:connector-curvature="0" />
          <path
             style="fill:#0c21df"
             d="m 343.13581,786.9222 c -0.37968,-0.61433 2.59668,-14.31422 6.61415,-30.44419 l 7.30447,-29.32721 -3.45579,-2.77427 c -4.93101,-3.95856 -16.95578,-16.4989 -16.95578,-17.68277 0,-0.63141 4.72377,-0.84946 12.89035,-0.59501 l 12.89034,0.40163 13.63875,-54.03339 c 7.50131,-29.71836 13.62566,-54.39858 13.60966,-54.84493 -0.016,-0.44635 -2.72335,2.76399 -6.01631,7.13409 -11.71056,15.54108 -30.15949,30.44827 -49.07764,39.65593 -9.34297,4.54732 -22.49202,9.29799 -23.3528,8.43722 -0.9493,-0.94931 -2.58215,-17.67378 -2.57645,-26.38946 0.0144,-22.02661 6.4622,-45.36576 17.59689,-63.69544 2.95059,-4.85719 3.39894,-6.21432 2.2842,-6.91408 -0.76284,-0.47886 -15.43233,-9.31852 -32.59886,-19.64368 -18.63503,-11.20843 -31.21599,-19.37746 -31.22208,-20.27303 -0.006,-0.88653 17.46236,-12.72865 42.71187,-28.95511 23.49714,-15.10031 50.82208,-32.70248 60.72208,-39.11595 71.89963,-46.57833 75.89563,-48.90155 74.03647,-43.04384 -0.33079,1.04222 -6.91197,27.03194 -14.62485,57.75492 -11.32683,45.11856 -14.19998,57.98701 -14.94161,66.92144 -1.50169,18.0909 -5.01374,31.85666 -12.2037,47.83335 -6.63092,14.73446 -7.85039,12.78813 17.73369,28.30378 12.1,7.33813 22.14473,14.00394 22.32162,14.8129 0.17689,0.80896 -11.90149,22.73487 -26.84086,48.72424 l -27.16248,47.2534 3.34086,2.45526 c 9.46976,6.95951 20.36894,20.20372 24.22891,29.44192 l 1.58118,3.78429 -4.23462,-0.70313 c -7.79864,-1.29492 -21.16138,-5.52504 -29.0134,-9.18453 -4.69412,-2.18772 -8.13106,-3.26005 -8.66713,-2.70415 -0.48858,0.50667 -6.96407,11.48403 -14.38998,24.39414 -7.42592,12.91011 -13.94697,23.62136 -14.49124,23.80278 -0.54427,0.18143 -1.30023,-0.17278 -1.67991,-0.78712 z m 16.08396,-30.73859 c 4.29383,-7.5625 8.62408,-15.14307 9.62277,-16.84571 l 1.81581,-3.09571 -4.98426,-3.09838 -4.98425,-3.09839 -0.96634,3.6941 c -9.5478,36.49887 -9.47457,36.19409 -8.69567,36.19409 0.21173,0 3.8981,-6.1875 8.19194,-13.75 z m 49.63558,-86.25 c 14.01857,-24.475 25.98691,-45.44792 26.5963,-46.60649 1.03778,-1.97304 -0.22536,-2.91257 -19.9374,-14.82968 -11.57495,-6.99775 -21.15514,-12.57483 -21.28931,-12.39351 -0.13417,0.18132 -6.52983,25.39489 -14.21257,56.03014 l -13.96863,55.70045 5.03728,1.64761 c 2.7705,0.90619 6.6178,2.46138 8.54955,3.45598 1.93176,0.99461 3.56273,1.73798 3.62437,1.65194 0.0616,-0.086 11.58183,-20.18144 25.60041,-44.65644 z M 338.50153,545.52558 c 16.25908,-19.65624 41.54347,-34.92507 67.8375,-40.96595 5.65189,-1.29849 6.22469,-1.2787 6.5208,0.22522 0.30327,1.54032 24.81972,-93.93122 24.79457,-96.55458 -0.0107,-1.11321 -13.18865,7.07355 -48.51154,30.13761 -7.7,5.0277 -37.73623,24.42428 -66.74718,43.10351 -29.01094,18.67922 -52.72888,34.18722 -52.70651,34.46222 0.0619,0.7618 60.29257,36.92166 61.56917,36.96347 0.61351,0.0201 3.87295,-3.29709 7.24319,-7.3715 z"
             id="path3791"
             inkscape:connector-curvature="0" />
          <path
             style="fill:#255067"
             d="m 343.13581,786.9222 c -0.37968,-0.61433 2.59668,-14.31422 6.61415,-30.44419 l 7.30447,-29.32721 -3.45579,-2.77427 c -4.93101,-3.95856 -16.95578,-16.4989 -16.95578,-17.68277 0,-0.63141 4.72377,-0.84946 12.89035,-0.59501 l 12.89034,0.40163 13.63875,-54.03339 c 7.50131,-29.71836 13.62566,-54.39858 13.60966,-54.84493 -0.016,-0.44635 -2.72335,2.76399 -6.01631,7.13409 -11.71056,15.54108 -30.15949,30.44827 -49.07764,39.65593 -9.34297,4.54732 -22.49202,9.29799 -23.3528,8.43722 -0.9493,-0.94931 -2.58215,-17.67378 -2.57645,-26.38946 0.038,-58.22445 40.54642,-108.77178 97.69027,-121.90021 5.64755,-1.29749 6.23494,-1.27755 6.634,0.22522 0.40047,1.50806 0.44773,1.50938 0.55383,0.0154 0.0926,-1.30402 4.116,-3.58816 4.116,-2.33672 0,0.18848 -1.12442,4.98385 -2.49871,10.65638 -1.37428,5.67254 -2.49928,12.61726 -2.5,15.43272 -0.003,12.40357 -5.21175,33.18307 -12.21794,48.74285 -6.65113,14.77123 -7.87221,12.81818 17.71665,28.33673 12.1,7.33813 22.14473,14.00394 22.32162,14.8129 0.17689,0.80896 -11.90149,22.73487 -26.84086,48.72424 l -27.16248,47.2534 3.34086,2.45526 c 9.46976,6.95951 20.36894,20.20372 24.22891,29.44192 l 1.58118,3.78429 -4.23462,-0.70313 c -7.79864,-1.29492 -21.16138,-5.52504 -29.0134,-9.18453 -4.69412,-2.18772 -8.13106,-3.26005 -8.66713,-2.70415 -0.48858,0.50667 -6.96407,11.48403 -14.38998,24.39414 -7.42592,12.91011 -13.94697,23.62136 -14.49124,23.80278 -0.54427,0.18143 -1.30023,-0.17278 -1.67991,-0.78712 z m 16.08396,-30.73859 c 4.29383,-7.5625 8.62408,-15.14307 9.62277,-16.84571 l 1.81581,-3.09571 -4.98426,-3.09838 -4.98425,-3.09839 -0.96634,3.6941 c -9.5478,36.49887 -9.47457,36.19409 -8.69567,36.19409 0.21173,0 3.8981,-6.1875 8.19194,-13.75 z m 49.63558,-86.25 c 14.01857,-24.475 25.98691,-45.44792 26.5963,-46.60649 1.03778,-1.97304 -0.22536,-2.91257 -19.9374,-14.82968 -11.57495,-6.99775 -21.15514,-12.57483 -21.28931,-12.39351 -0.13417,0.18132 -6.52983,25.39489 -14.21257,56.03014 l -13.96863,55.70045 5.03728,1.64761 c 2.7705,0.90619 6.6178,2.46138 8.54955,3.45598 1.93176,0.99461 3.56273,1.73798 3.62437,1.65194 0.0616,-0.086 11.58183,-20.18144 25.60041,-44.65644 z"
             id="path3789"
             inkscape:connector-curvature="0" />
          <path
             style="fill:#041289"
             d="m 343.23903,787.08922 c -0.61861,-1.00093 10.41372,-45.89112 33.33909,-135.65561 7.72569,-30.25 14.04872,-55.675 14.05118,-56.5 0.003,-0.89997 -12.16364,-8.84775 -30.41417,-19.86839 -21.11225,-12.74869 -30.25644,-18.79108 -29.88847,-19.75 0.2916,-0.75988 0.88488,-1.38161 1.3184,-1.38161 0.43353,0 13.54788,7.71793 29.14302,17.15096 15.59513,9.43302 29.02978,17.32673 29.85478,17.54158 1.19982,0.31246 3.68194,-8.20749 12.4032,-42.57439 9.00991,-35.50431 11.22307,-43.04866 12.74524,-43.44672 1.55104,-0.4056 1.74137,-0.0623 1.20475,2.17343 -2.84968,11.8726 -19.74524,78.66434 -20.83568,82.36787 l -1.38757,4.71273 22.10962,13.34051 c 12.1603,7.33728 22.51422,13.99155 23.00872,14.78727 0.64931,1.04484 -6.37812,14.08701 -25.29602,46.94676 -14.40731,25.025 -26.80529,46.85 -27.55107,48.5 -0.74578,1.65 -4.02154,7.5 -7.27946,13 -3.25791,5.5 -12.06675,20.65204 -19.57518,33.67119 -13.52618,23.45354 -15.81316,26.82448 -16.95038,24.98442 z m 28.13288,-52.15561 c 2.51016,-4.675 6.79796,-12.1 9.52842,-16.5 2.73047,-4.4 16.4445,-27.99086 30.47561,-52.42413 24.07759,-41.92782 25.40593,-44.50281 23.63902,-45.82425 -3.84811,-2.87793 -40.42469,-24.53176 -40.7923,-24.1496 -0.31823,0.33084 -21.79725,85.20605 -30.84821,121.89798 -1.42455,5.775 -5.08528,20.175 -8.13497,32 -3.04968,11.825 -5.55464,21.95 -5.56658,22.5 -0.0231,1.06376 14.0715,-23.29435 21.69901,-37.5 z"
             id="path3787"
             inkscape:connector-curvature="0" />
          <path
             style="fill:#030d62"
             d="m 371.77755,737.03801 c -1.07246,-0.67943 -0.0339,-3.14284 4.84194,-11.48468 3.41398,-5.84085 6.52587,-10.61972 6.91531,-10.61972 0.38943,0 1.18788,0.47982 1.77433,1.06627 0.75503,0.75503 -0.68579,4.11185 -4.93605,11.5 -3.30129,5.73855 -6.27861,10.42684 -6.61628,10.41842 -0.33767,-0.008 -1.22833,-0.40455 -1.97925,-0.88029 z m -13.73281,-9.4995 c -0.93635,-2.44008 3.75923,-20.6049 5.32633,-20.6049 2.39879,0 2.40412,2.55311 0.0251,12.029 -2.25094,8.96586 -4.07818,11.89407 -5.35148,8.5759 z m 2.88961,-151.88685 c -16.61467,-10.01993 -30.22717,-18.75399 -30.25,-19.40903 -0.0228,-0.65504 0.36347,-1.44127 0.85842,-1.74716 0.49496,-0.3059 13.65746,7.16047 29.25,16.59194 15.59255,9.43146 29.02509,17.32508 29.85009,17.54138 1.19923,0.31441 3.50512,-7.539 11.5,-39.16675 9.5068,-37.60894 10.01446,-39.24394 10.29325,-33.15115 0.24409,5.33448 -1.03694,11.60473 -7.6415,37.4026 -5.39546,21.07504 -8.79995,32.47004 -10.63828,35.60692 -1.48693,2.53726 -2.77325,4.59882 -2.85849,4.58125 -0.0852,-0.0176 -13.74881,-8.23007 -30.36349,-18.25 z"
             id="path3785"
             inkscape:connector-curvature="0" />
        </g>
        <rect
           style="fill:none;stroke:none"
           id="rect3803"
           width="524"
           height="524"
           x="105.72994"
           y="248.71054" />
      </g>
    </g>
  </g>
</svg>
